# xmcd CD database file
#
# Track frame offsets:
#	180
#	13521
#	29235
#	42990
#	56871
#	67244
#	80010
#	91190
#	116460
#	132547
#
# Disc length: 1975 seconds
#
# Revision: 0
# Processed by: cddbd v1.4PL0 Copyright (c) Steve Scherf et al.
# Submitted via: CDex 1.40Beta9
#
DISCID=9107b50a
DTITLE=Double Trouble - Nashville 1978
DYEAR=1900
DGENRE=Blues
TTITLE0=You Can Have My Husband
TTITLE1=Rude Mude
TTITLE2=Pride and Joy
TTITLE3=Oh, Yeah
TTITLE4=Love Struck Baby
TTITLE5=Ti-Ni-Nee-Ni-Nu
TTITLE6=Gonna Miss Me
TTITLE7=I Wonder Why
TTITLE8=I'm Crying
TTITLE9=Sugar Coated Loving
EXTD=ID3G: 0
EXTT0=
EXTT1=
EXTT2=
EXTT3=
EXTT4=
EXTT5=
EXTT6=
EXTT7=
EXTT8=
EXTT9=
PLAYORDER=
